<svg width="24" height="24" viewBox="0 0 24 24" fill="none" xmlns="http://www.w3.org/2000/svg">
<path d="M21.5 9.00089H19.5V8.81089C19.5 6.90089 18.39 5.19089 16.6 4.33089L17.47 2.53089C19.96 3.72089 21.5 6.13089 21.5 8.81089V9.00089ZM4.5 8.81089C4.5 6.90089 5.61 5.19089 7.4 4.33089L6.53 2.53089C4.04 3.72089 2.5 6.13089 2.5 8.81089V9.00089H4.5V8.81089ZM12 22.0009C13.1 22.0009 14 21.1009 14 20.0009H10C10 21.1009 10.9 22.0009 12 22.0009ZM20 17.3509V19.0009H4V17.3509L6 15.4709V10.3209C6 7.40089 7.56 5.10089 10 4.34089V3.96089C10 2.54089 11.49 1.46089 12.99 2.20089C13.64 2.52089 14 3.23089 14 3.96089V4.35089C16.44 5.10089 18 7.41089 18 10.3309V15.4809L20 17.3509Z" fill="white"/>
</svg>
