<svg width="201" height="219" viewBox="0 0 201 219" fill="none" xmlns="http://www.w3.org/2000/svg">
<path fill-rule="evenodd" clip-rule="evenodd" d="M7.84078 28.6684C3.38772 31.0989 0.476964 35.5944 0.0505661 40.6072C0.022403 40.2265 0.00545312 39.8433 0 39.4579V88.0044C0.00703437 87.688 0.0239656 87.3733 0.0505651 87.0606C0.620706 94.7672 5.78665 101.429 13.2033 103.858L22.2306 106.814L7.84078 114.668C3.38772 117.099 0.476964 121.594 0.0505661 126.607C0.022403 126.226 0.00545312 125.843 0 125.458V174.004C0.00703437 173.688 0.0239656 173.373 0.0505651 173.061C0.620706 180.767 5.78665 187.429 13.2033 189.858L85.7898 213.63C111.178 221.944 138.875 219.401 162.324 206.602L193.159 189.771C197.612 187.341 200.523 182.845 200.949 177.832C200.978 178.213 200.995 178.596 201 178.981V130.435C200.993 130.751 200.976 131.066 200.949 131.379C200.379 123.672 195.213 117.011 187.797 114.582L178.77 111.625L193.159 103.771C197.612 101.341 200.523 96.845 200.949 91.8323C200.978 92.2129 200.995 92.5961 201 92.9815V44.435C200.993 44.7514 200.976 45.0661 200.949 45.3789C200.379 37.6723 195.213 31.0109 187.797 28.5818L115.21 4.80976C89.8218 -3.50501 62.1253 -0.961767 38.6761 11.8375L7.84078 28.6684ZM30.0576 109.377L10.7154 119.935C7.88622 121.479 6.09219 124.409 6 127.626V129C6.10893 136.309 11.0967 142.745 18.415 145.02L22.4937 146.288L53.4402 129.397C59.2932 126.202 65.6008 124.105 72.0621 123.134L30.0576 109.377ZM119.552 132.372C134.378 131.816 149.033 127.856 162.324 120.602L171.54 115.571L185.929 120.284C191.265 122.031 194.905 126.967 195 132.575V133.443C194.887 138.252 192.076 142.638 187.627 144.943L176.129 150.901L119.552 132.372ZM86.668 80.2398L30.4724 62.7687L56.3149 48.6631C68.5085 42.0075 82.9104 40.6848 96.1125 45.0087L168.664 68.7692L158.633 73.9668C136.584 85.3919 110.541 87.6621 86.668 80.2398ZM97.9799 39.3067L176.129 64.9006L187.627 58.9426C192.076 56.6375 194.887 52.2521 195 47.4428V46.5747C194.905 40.9666 191.265 36.0314 185.929 34.2837L113.343 10.5118C89.5275 2.71217 63.5469 5.09785 41.5507 17.104L10.7154 33.9349C7.88622 35.4791 6.09219 38.4085 6 41.6261V43C6.10893 50.3085 11.0967 56.7447 18.415 59.02L22.4937 60.2881L53.4402 43.3966C67.0867 35.9479 83.2046 34.4676 97.9799 39.3067ZM86.668 166.24L30.4724 148.769L56.3149 134.663C68.5085 128.007 82.9104 126.685 96.1125 131.009L168.664 154.769L158.633 159.967C136.584 171.392 110.541 173.662 86.668 166.24Z" fill="white"/>
</svg>
