<svg width="120" height="120" viewBox="0 0 120 120" fill="none" xmlns="http://www.w3.org/2000/svg">
<path d="M114.598 59.9984C114.59 72.0331 110.607 83.7281 103.268 93.2659C95.9286 102.804 85.6444 109.65 74.0134 112.741C62.3825 115.832 50.0562 114.995 38.9502 110.359C27.8441 105.724 18.5803 97.5492 12.5984 87.1064C9.801 82.2463 7.78061 76.9787 6.61044 71.4944C5.80334 67.7157 5.39709 63.8624 5.39844 59.9984C5.40311 51.6986 7.29883 43.509 10.9417 36.0514C14.5845 28.5937 19.8787 22.0641 26.4222 16.9584C32.9658 11.8526 40.5867 8.30497 48.7062 6.58473C56.8258 4.86449 65.2306 5.01691 73.2824 7.03042C78.7185 8.38216 83.9094 10.5767 88.6664 13.5344C96.5912 18.4264 103.134 25.2632 107.672 33.3955C112.211 41.5278 114.595 50.6854 114.598 59.9984Z" fill="white"/>
<path d="M105 59.9983C105.004 71.5332 100.577 82.6288 92.6329 90.9925C84.6891 99.3561 73.836 104.349 62.3162 104.938H62.2802C61.5242 104.974 60.7682 104.998 60.0002 104.998C48.7348 104.999 37.879 100.774 29.5775 93.1583C21.2759 85.543 16.1324 75.0911 15.1631 63.8675C14.1938 52.6439 17.4691 41.465 24.342 32.5391C31.2149 23.6132 41.1856 17.5896 52.2842 15.6583H52.3202C58.7838 14.5369 65.4144 14.8426 71.7475 16.554C78.0805 18.2654 83.9626 21.3411 88.9816 25.5655C94.0006 29.7899 98.035 35.0608 100.802 41.0089C103.569 46.9569 105.002 53.4381 105 59.9983Z" fill="#808080"/>
<path d="M99.6002 60.5977C99.6026 71.1958 95.8639 81.4546 89.0432 89.5661C82.2225 97.6777 72.7574 103.121 62.3162 104.938H62.2802C61.5242 104.974 60.7682 104.998 60.0002 104.998C48.7348 104.998 37.879 100.773 29.5775 93.1577C21.2759 85.5424 16.1324 75.0905 15.1631 63.8669C14.1938 52.6433 17.4691 41.4643 24.342 32.5384C31.2149 23.6125 41.1856 17.5889 52.2842 15.6577H52.3202C53.0762 15.6217 53.8322 15.5977 54.6002 15.5977C60.5102 15.5958 66.3626 16.7584 71.8231 19.0192C77.2837 21.28 82.2452 24.5946 86.4242 28.7736C90.6032 32.9527 93.9178 37.9142 96.1786 43.3747C98.4394 48.8352 99.602 54.6876 99.6002 60.5977Z" fill="#C0C0C0"/>
<path d="M22.35 51.5H34.95V54.65H30.3V69H27V54.65H22.35V51.5ZM46.9326 65.25H40.9826L40.1326 69H36.6826L40.8576 51.5H47.0576L51.2326 69H47.7826L46.9326 65.25ZM41.6826 62.1H46.2076L44.1826 53.15H43.7326L41.6826 62.1ZM53.4152 51.5H65.1152V54.65H60.9152V65.85H65.1152V69H53.4152V65.85H57.6152V54.65H53.4152V51.5ZM68.9729 51.5H72.2729V65.85H80.2229V69H68.9729V51.5ZM92.8805 56.85C92.8805 56.15 92.6055 55.5417 92.0555 55.025C91.5221 54.5083 90.7638 54.25 89.7805 54.25C88.9471 54.25 88.2888 54.425 87.8055 54.775C87.3221 55.1083 87.0805 55.5667 87.0805 56.15C87.0805 56.45 87.1388 56.725 87.2555 56.975C87.3721 57.2083 87.5721 57.425 87.8555 57.625C88.1555 57.8083 88.5388 57.975 89.0055 58.125C89.4888 58.275 90.0971 58.4167 90.8305 58.55C92.6638 58.8833 94.0638 59.4417 95.0305 60.225C95.9971 61.0083 96.4805 62.1667 96.4805 63.7V64C96.4805 64.8167 96.3305 65.5583 96.0305 66.225C95.7471 66.875 95.3305 67.4333 94.7805 67.9C94.2305 68.3667 93.5638 68.725 92.7805 68.975C91.9971 69.225 91.1138 69.35 90.1305 69.35C88.9805 69.35 87.9638 69.1917 87.0805 68.875C86.2138 68.5417 85.4888 68.0917 84.9055 67.525C84.3221 66.9417 83.8805 66.2667 83.5805 65.5C83.2805 64.7167 83.1305 63.8667 83.1305 62.95V62.2H86.4305V62.8C86.4305 63.85 86.7305 64.6917 87.3305 65.325C87.9471 65.9417 88.8971 66.25 90.1805 66.25C91.1805 66.25 91.9221 66.0333 92.4055 65.6C92.8888 65.1667 93.1305 64.65 93.1305 64.05C93.1305 63.7667 93.0805 63.5 92.9805 63.25C92.8805 62.9833 92.7055 62.75 92.4555 62.55C92.2055 62.3333 91.8638 62.1417 91.4305 61.975C90.9971 61.8083 90.4471 61.6667 89.7805 61.55C88.8971 61.4 88.0888 61.2083 87.3555 60.975C86.6221 60.725 85.9805 60.4 85.4305 60C84.8971 59.6 84.4805 59.1 84.1805 58.5C83.8805 57.9 83.7305 57.1667 83.7305 56.3V56.15C83.7305 55.4333 83.8721 54.775 84.1555 54.175C84.4555 53.5583 84.8638 53.025 85.3805 52.575C85.9138 52.125 86.5471 51.775 87.2805 51.525C88.0305 51.275 88.8638 51.15 89.7805 51.15C90.8138 51.15 91.7305 51.3 92.5305 51.6C93.3305 51.8833 93.9971 52.275 94.5305 52.775C95.0805 53.275 95.4888 53.85 95.7555 54.5C96.0388 55.15 96.1805 55.8333 96.1805 56.55V57.45H92.8805V56.85Z" fill="black"/>
</svg>
